<?xml version="1.0" standalone="no"?>
<!DOCTYPE svg PUBLIC "-//W3C//DTD SVG 20010904//EN"
 "http://www.w3.org/TR/2001/REC-SVG-20010904/DTD/svg10.dtd">
<svg version="1.0" xmlns="http://www.w3.org/2000/svg"
 width="257.000000pt" height="257.000000pt" viewBox="0 0 257.000000 257.000000"
 preserveAspectRatio="xMidYMid meet">
<metadata>
Created by potrace 1.14, written by Peter Selinger 2001-2017
</metadata>
<g transform="translate(0.000000,257.000000) scale(0.100000,-0.100000)"
fill="#000000" stroke="none">
<path d="M202 2554 c-90 -26 -156 -90 -186 -177 -12 -36 -16 -87 -16 -210 l0
-162 80 0 c79 0 80 0 81 25 0 14 0 83 1 155 0 142 8 169 55 200 26 17 57 19
409 19 l382 0 -2 81 -1 80 -382 1 c-266 0 -394 -3 -421 -12z"/>
<path d="M1170 2485 l0 -81 403 0 402 1 3 80 3 81 -406 0 -405 0 0 -81z"/>
<path d="M2140 2486 l0 -81 89 -1 c75 -1 94 -5 120 -23 42 -30 50 -71 50 -246
0 -82 0 -162 0 -177 l1 -28 81 0 80 0 -3 218 c-3 201 -5 220 -25 258 -35 66
-70 101 -129 130 -47 23 -69 27 -159 29 l-105 3 0 -82z"/>
<path d="M10 1842 c-7 -3 -10 -142 -10 -406 l0 -402 75 -1 c41 -1 77 3 81 8 8
13 8 788 0 796 -7 7 -128 11 -146 5z"/>
<path d="M845 1822 c-44 -4 -83 -21 -91 -40 -6 -14 -10 -68 -13 -217 -1 -18
-6 -20 -40 -17 -32 3 -45 -1 -65 -22 -16 -15 -27 -38 -27 -56 -7 -148 4 -172
82 -180 l51 -5 2 -160 c2 -140 6 -166 25 -210 25 -57 54 -90 96 -113 75 -38
208 -54 273 -31 38 13 55 52 54 125 -1 88 -30 113 -133 114 -46 0 -53 21 -54
156 l-1 123 76 0 c91 -1 127 12 141 48 14 35 14 145 0 171 -16 31 -63 44 -140
40 -39 -1 -71 -1 -72 2 -1 3 -2 51 -4 106 -3 105 -12 136 -44 153 -21 12 -73
18 -116 13z"/>
<path d="M2399 1748 c-2 -94 0 -780 3 -783 3 -4 86 -7 131 -6 l27 1 0 403 0
403 -80 2 c-77 2 -80 1 -81 -20z"/>
<path d="M1520 1556 c-139 -30 -199 -103 -195 -236 5 -136 52 -201 185 -255
25 -9 54 -19 65 -20 90 -13 135 -29 135 -49 0 -47 -113 -46 -208 2 -85 43
-123 42 -158 -3 -34 -45 -54 -103 -44 -130 17 -48 144 -104 260 -114 83 -7
204 8 263 33 84 36 129 110 130 215 2 161 -65 227 -273 267 -79 15 -120 35
-120 59 0 41 105 45 206 9 55 -20 64 -21 83 -8 32 23 73 99 69 131 -9 78 -234
134 -398 99z"/>
<path d="M57 872 l-58 -3 3 -332 3 -332 29 -52 c15 -28 42 -65 60 -81 l31 -30
60 53 60 54 -32 33 c-17 18 -36 45 -41 59 -6 14 -10 151 -10 305 -1 153 -1
289 -1 300 -1 25 -21 30 -104 26z"/>
<path d="M2399 780 c0 -8 0 -128 0 -267 -1 -293 -3 -303 -81 -340 -27 -13 -48
-27 -48 -33 0 -5 14 -39 32 -74 l32 -65 34 15 c63 26 127 81 158 136 l29 53 3
296 3 296 -80 -1 c-65 -1 -81 -4 -82 -16z"/>
<path d="M360 160 c-7 -4 -10 -34 -8 -81 l3 -74 400 0 400 0 5 50 c3 28 3 64
0 81 l-5 31 -392 0 c-215 0 -397 -3 -403 -7z"/>
<path d="M1325 91 c1 -42 3 -78 4 -81 0 -3 180 -5 399 -5 l397 0 5 55 c3 30 3
67 2 81 l-4 26 -402 0 -403 0 2 -76z"/>
</g>
</svg>
